<?xml version="1.0" encoding="UTF-8" standalone="no"?><!DOCTYPE svg PUBLIC "-//W3C//DTD SVG 1.1//EN" "http://www.w3.org/Graphics/SVG/1.1/DTD/svg11.dtd"><svg width="100%" height="100%" viewBox="0 0 4267 1067" version="1.1" xmlns="http://www.w3.org/2000/svg" xmlns:xlink="http://www.w3.org/1999/xlink" xml:space="preserve" xmlns:serif="http://www.serif.com/" style="fill-rule:evenodd;clip-rule:evenodd;stroke-linejoin:round;stroke-miterlimit:2;"><rect x="619" y="325" width="204" height="401" style="fill:#52b89f;fill-rule:nonzero;"/><path d="M2067,458l2.082,1.582c12.865,10.429 21.155,26.159 26.23,41.668l0.698,2.086c4.896,16.04 5.565,32.645 5.49,49.289l-0.003,3.05c-0.049,15.631 -1.048,30.249 -5.497,45.325l-0.615,2.229c-5.883,21.134 -17.375,40.417 -36.811,51.4l-2.574,1.371l-2.48,1.34c-18.884,9.399 -43.446,11.272 -63.52,4.66c-3.814,-1.432 -7.4,-3.096 -11,-5l-2.516,-1.27c-9.226,-5.034 -17.055,-12.741 -22.484,-21.73l0,-2l-2,0l0,112c-12.338,0 -24.673,-0.486 -37,-1l-1,-297l38,1l0,31l2,0l0.738,-2.164c5.56,-12.496 18.873,-24.158 31.473,-29.094c3.243,-1.04 6.483,-1.929 9.789,-2.742l2.566,-0.684c23.343,-5.297 49.628,-0.035 68.434,14.684Zm-22.191,30.254c-22.36,-17.944 -59.52,-18.905 -81.109,0.852c-12.08,12.854 -14.204,27.893 -13.862,44.826c0.036,1.729 0.066,3.458 0.091,5.187c0.048,3.634 0.099,7.267 0.164,10.9c0.089,4.694 0.174,9.389 0.24,14.084c0.063,4.572 0.13,9.144 0.204,13.716l0.042,2.615c0.038,2.512 0.078,5.025 0.124,7.537l0.045,2.308c0.064,4.332 0.182,8.498 1.253,12.721c5.235,12.341 13.43,20.164 25.555,25.559l3.445,1.441c6.237,2.663 12.237,3.179 18.954,3.349c16.646,0.147 32.515,-2.259 44.984,-14.193c16.121,-16.854 18.742,-38.173 18.419,-60.543c-0.03,-2.046 -0.05,-4.093 -0.062,-6.14c-0.008,-2.035 -0.019,-4.069 -0.032,-6.104l-0.024,-2.929c-0.022,-2.632 -0.059,-5.262 -0.124,-7.894c-0.782,-17.495 -5.069,-35.041 -18.305,-47.294Z" style="fill:#eeedee;"/><path d="M2703.096,461.048c13.64,-10.506 30.58,-16.781 47.63,-18.732c26.117,-2.186 57.458,0.524 78.086,18.434c13.056,12.587 21.038,29.422 21.548,47.673c0.009,2.268 0.001,4.536 -0.02,6.803l0.001,3.789c-0.002,3.384 -0.017,6.767 -0.038,10.15c-0.019,3.553 -0.021,7.105 -0.024,10.658c-0.009,6.707 -0.034,13.415 -0.064,20.122c-0.034,7.645 -0.05,15.289 -0.065,22.934c-0.031,15.707 -0.086,31.414 -0.151,47.121l30,0l0,31c-4.82,0.046 -9.639,0.086 -14.459,0.11c-1.636,0.01 -3.272,0.024 -4.908,0.041c-25.124,0.261 -25.124,0.261 -35.39,-8.682c-5.83,-6.211 -8.135,-14.39 -10.242,-22.469l-1.215,2.055c-10.301,16.864 -21.221,26.202 -40.199,31.113c-23.192,5.381 -47.957,2.752 -68.711,-8.918c-15.369,-9.695 -23.95,-23.525 -28.188,-41.062c-3.001,-18.007 0.599,-35.845 11.207,-50.871c11.677,-14.233 30.601,-20.198 48.105,-23.316l3.094,-0.561c14.003,-2.121 28.158,-1.667 42.281,-1.576c3.574,0.021 7.148,0.03 10.722,0.04c6.968,0.021 13.935,0.055 20.902,0.098c-0.134,-4.177 -0.279,-8.354 -0.426,-12.531l-0.114,-3.567c-0.431,-11.991 -1.466,-23.305 -9.46,-32.901c-2.803,-2.444 -5.718,-4.266 -9,-6l-2.227,-1.18c-8.607,-4.167 -17.555,-5.195 -27.023,-5.133l-2.769,0.017c-19.749,0.351 -33.991,7.775 -47.981,21.295c-2.789,2.908 -5.458,5.874 -8,9c-5.68,-4.041 -10.801,-8.453 -15.874,-13.216c-2.301,-2.152 -4.496,-4.031 -7.126,-5.784c0.488,-4.7 2.642,-7.711 5.5,-11.312l1.364,-1.735c0.015,-0.019 0.031,-0.038 0.046,-0.058c-0.598,1.045 -0.91,2.25 -0.91,4.105l16,-16l-1.904,-0.952Zm70.255,102.854c-8.69,-0.041 -17.169,0.216 -25.75,1.676c-12.15,2.742 -22.404,5.643 -29.602,16.422c-4.864,8.056 -5.416,18.077 -3.547,27.215l0.547,1.785c1.791,6.214 4.381,10.314 8.836,15.02c8.523,7.8 20.192,8.229 31.24,8.254l3.486,-0.023c3.43,0.023 6.852,0.018 10.282,-0.061c13.689,-0.819 27.823,-6.219 37.226,-16.439c9.478,-12.373 9.478,-12.373 6.93,-53.75c-5.999,-0.021 -11.997,-0.038 -17.996,-0.049l-7.379,-0.014c-3.606,-0.013 -7.212,-0.025 -10.819,-0.031l-3.455,-0.004Z" style="fill:#eeedee;"/><path d="M1548.812,462.312c20.324,17.64 29.449,38.521 33.188,64.688l0,37l-156,0c3.402,30.96 3.402,30.96 21.316,54.871c12.473,9.077 25.017,13.725 40.496,13.566l3.187,-0.025c17.479,-0.378 34.324,-7.176 47,-19.412c4.751,-5.246 8.728,-10.729 12,-17c4.842,2.647 9.183,5.51 13.5,8.938c4.429,3.464 8.888,6.845 13.5,10.062c-2.598,13.962 -17.029,26.159 -28.177,33.823c-24.202,15.631 -54.13,21.06 -82.323,15.552c-17.501,-3.775 -32.989,-11.588 -46.5,-23.375l-1.859,-1.605c-14.515,-13.483 -22.967,-33.403 -27.328,-52.332l-0.507,-2.167c-7.419,-34.017 -2.805,-72.201 15.565,-101.923c14.886,-21.571 36.762,-34.543 62.129,-39.973c27.701,-4.982 58.627,1.87 80.812,19.312Zm-23.496,23.191c-24.038,-15.607 -53.864,-17.686 -77.629,0.246c-15.745,13.444 -20.863,30.182 -22.688,50.25l120,0c0,-4.293 0.033,-8.596 -0.312,-12.875c-1.987,-13.854 -8.061,-28.74 -19.371,-37.621Z" style="fill:#eeedee;"/><path d="M1033.25,459.812c1.604,1.373 3.187,2.769 4.75,4.188l2.52,2.238c16.584,15.565 24.123,35.974 28.48,57.762l1,40l-156,0c1.328,17.642 1.328,17.642 6,34l1.055,2.656c5.723,12.789 16.26,21.464 28.746,27.168c8.524,3.133 16.359,4.712 25.449,4.613l3.037,-0.025c14.908,-0.337 31.744,-4.911 42.928,-15.408c5.65,-6.342 10.709,-13.202 15.785,-20.004c4.784,1.576 8.392,4.267 12.375,7.25l1.922,1.41c4.402,3.261 8.589,6.723 12.703,10.34c-9.666,20.719 -28.72,35.594 -49.787,43.622c-28.081,10.002 -58.132,8.717 -85.213,-3.622c-8.776,-4.346 -16.005,-10.216 -23,-17l-1.855,-1.633c-18.728,-17.057 -27.002,-46.912 -28.145,-71.367c-1.035,-32.62 1.522,-65.369 24,-91l1.789,-2.219c13.795,-16.576 36.423,-27.522 57.672,-30.5c25.716,-2.044 52.789,1.238 73.789,17.531Zm-62.184,13c-13.097,1.188 -25.685,4.75 -36.066,13.188c-15.204,14.265 -20.274,29.292 -22,50l120,0c-1.699,-18.694 -4.446,-35.317 -18.625,-48.688c-12.011,-9.719 -27.736,-15.343 -43.309,-14.5Z" style="fill:#eeedee;"/><path d="M1661,356l38,0c0.644,40.502 1.108,80.997 1.123,121.504c0.002,2.846 0.005,5.692 0.009,8.538c0.024,19.342 0.017,38.642 -1.133,57.958c1.287,-1.12 2.573,-2.242 3.859,-3.363c0.716,-0.624 1.433,-1.249 2.171,-1.892c2.077,-1.84 4.043,-3.749 5.97,-5.745c2.54,-2.579 5.125,-5.022 7.875,-7.375c3.192,-2.741 6.168,-5.632 9.125,-8.625c2.896,-2.931 5.802,-5.764 8.938,-8.438c3.352,-2.864 6.468,-5.926 9.562,-9.062c3.668,-3.718 7.431,-7.237 11.406,-10.625c3.137,-2.81 6.064,-5.825 9.021,-8.822c3.267,-3.294 6.652,-6.368 10.178,-9.378c2.053,-1.816 3.972,-3.723 5.895,-5.676c3.175,-3.218 6.441,-6.253 9.903,-9.161c2.096,-1.782 2.096,-1.782 3.849,-3.682c3.614,-3.659 6.257,-5.599 11.471,-5.952c1.947,0.001 3.894,0.04 5.84,0.111c1.032,0.01 2.064,0.02 3.127,0.03c3.272,0.039 6.54,0.127 9.811,0.216c2.228,0.035 4.456,0.067 6.684,0.096c5.44,0.077 10.878,0.194 16.316,0.342c-0.73,0.73 -1.461,1.46 -2.214,2.211c-2.461,2.463 -4.916,4.933 -7.368,7.406c-1.743,1.753 -3.487,3.505 -5.23,5.258c-0.864,0.873 -1.729,1.745 -2.619,2.645c-4.499,4.516 -9.057,8.877 -13.895,13.028c-1.99,1.728 -3.843,3.557 -5.673,5.453c-2.482,2.571 -5.07,4.955 -7.766,7.297c-4.091,3.553 -8.047,7.231 -11.984,10.953c-6.7,6.307 -13.448,12.553 -20.25,18.75c-0.954,0.883 -1.908,1.766 -2.891,2.676c-0.902,0.829 -1.805,1.658 -2.734,2.512c-0.797,0.736 -1.593,1.472 -2.414,2.23c-1.961,1.582 -1.961,1.582 -3.961,1.582c7.24,9.905 14.542,19.757 22,29.5c5.067,6.619 10.074,13.275 15,20c5.567,7.598 11.242,15.106 16.964,22.587c4.592,6.006 9.138,12.043 13.661,18.1c6.481,8.671 13.102,17.227 19.769,25.757c2.501,3.201 4.995,6.406 7.481,9.618c0.802,1.033 1.604,2.065 2.43,3.129c1.695,2.309 1.695,2.309 1.695,3.309c-1.449,-0.008 -1.449,-0.008 -2.927,-0.015c-1.351,-0.005 -2.703,-0.008 -4.054,-0.012c-1.081,-0.003 -1.081,-0.003 -2.184,-0.007c-4.34,-0.001 -8.664,0.087 -13,0.265c-24.323,0.937 -24.323,0.937 -29.89,-4.005c-2.499,-3.044 -4.184,-6.438 -5.827,-10.001c-2.001,-3.982 -4.762,-7.422 -7.431,-10.975c-1.104,-1.525 -2.206,-3.053 -3.305,-4.582c-5.153,-7.125 -10.382,-14.192 -15.608,-21.264c-1.786,-2.419 -3.568,-4.841 -5.349,-7.264c-5.444,-7.404 -10.902,-14.796 -16.426,-22.141c-2.001,-2.666 -4.001,-5.333 -6,-8c-0.621,-0.827 -1.241,-1.655 -1.881,-2.507c-1.962,-2.619 -3.916,-5.243 -5.869,-7.868c-0.621,-0.828 -1.243,-1.655 -1.883,-2.508c-0.57,-0.768 -1.14,-1.537 -1.727,-2.328c-0.765,-1.026 -0.765,-1.026 -1.546,-2.072c-1.095,-1.717 -1.095,-1.717 -1.095,-3.717c-4.268,3.708 -8.502,7.448 -12.688,11.25c-4.048,3.651 -8.158,7.221 -12.312,10.75c-0.564,0.481 -1.128,0.962 -1.71,1.458c-4.048,3.421 -4.048,3.421 -6.29,4.542c-1.484,8.447 -1.127,17.08 -1.098,25.629c0.002,1.601 0.003,3.203 0.004,4.804c0.004,4.187 0.014,8.374 0.025,12.561c0.012,5.039 0.017,10.077 0.022,15.116c0.01,7.63 0.029,15.26 0.046,22.889c-12.87,-0.33 -25.74,-0.66 -39,-1l0,-304Z" style="fill:#eeedee;fill-rule:nonzero;"/><path d="M2171,356l38,0l0,120c2.667,-2.667 4.731,-4.838 6.875,-7.812c0.522,-0.699 1.044,-1.397 1.582,-2.117c0.945,-1.268 1.882,-2.543 2.805,-3.828c7.01,-9.052 17.811,-15.316 28.738,-18.242c0.789,-0.223 1.578,-0.446 2.391,-0.676c20.672,-4.778 42.712,-1.115 60.87,9.564c4.438,2.837 8.113,6.323 11.739,10.112c0.62,0.589 1.24,1.178 1.879,1.785c15.085,15.355 18.457,38.164 18.348,58.622c-0.001,1.509 -0,3.018 0.001,4.527c0.001,4.059 -0.011,8.118 -0.025,12.177c-0.013,4.256 -0.014,8.512 -0.016,12.768c-0.006,8.043 -0.023,16.085 -0.043,24.128c-0.022,9.163 -0.033,18.327 -0.043,27.49c-0.021,18.834 -0.058,37.668 -0.101,56.502l-38,0c-0.009,-4.451 -0.019,-8.902 -0.028,-13.487c-0.034,-14.724 -0.089,-29.448 -0.156,-44.173c-0.04,-8.925 -0.072,-17.85 -0.087,-26.775c-0.013,-7.783 -0.04,-15.567 -0.084,-23.35c-0.023,-4.117 -0.038,-8.235 -0.037,-12.352c0.001,-3.884 -0.017,-7.768 -0.049,-11.652c-0.008,-1.417 -0.01,-2.834 -0.005,-4.252c0.048,-13.968 -3.114,-26.56 -12.554,-37.217c-9.806,-9.491 -22.661,-11.575 -35.922,-11.812c-14.17,0.287 -27.529,4.164 -38.078,14.07c-8.58,9.918 -9.448,20.369 -9.432,33.067c-0.009,1.509 -0.019,3.017 -0.031,4.526c-0.027,4.072 -0.037,8.143 -0.043,12.215c-0.009,4.264 -0.036,8.528 -0.06,12.792c-0.044,8.064 -0.072,16.128 -0.095,24.192c-0.027,9.185 -0.071,18.37 -0.116,27.555c-0.093,18.884 -0.164,37.769 -0.222,56.653c-3.965,0.025 -7.93,0.043 -11.896,0.055c-2.002,0.007 -4.003,0.02 -6.005,0.033c-1.279,0.003 -2.559,0.006 -3.877,0.01c-1.752,0.008 -1.752,0.008 -3.539,0.016c-4.242,-0.131 -8.466,-0.645 -12.684,-1.114l0,-304Z" style="fill:#eeedee;fill-rule:nonzero;"/><path d="M3553.312,442.75c0.672,0.003 1.345,0.006 2.038,0.009c30.795,0.166 57.95,6.286 81.65,27.241c0.752,0.656 1.503,1.312 2.277,1.988c3.664,3.388 3.664,3.388 4.723,5.012c-0.371,3.949 -2.455,5.791 -5.219,8.477c-1.274,1.253 -1.274,1.253 -2.574,2.531c-0.893,0.864 -1.787,1.727 -2.707,2.617c-1.762,1.719 -3.523,3.44 -5.281,5.164c-1.177,1.14 -1.177,1.14 -2.377,2.303c-1.903,1.781 -1.903,1.781 -2.842,3.908c-3.018,-1.36 -5.162,-2.922 -7.562,-5.188c-21.96,-19.565 -47.198,-22.322 -75.438,-20.812c-11.152,1.277 -22.717,5.053 -30,14c-4.438,7.521 -6.321,14.678 -4.504,23.375c1.967,6.581 4.907,10.927 10.754,14.75c14.904,6.672 32.524,7.38 48.516,9.154c11.186,1.254 22.213,2.723 33.202,5.201c0.882,0.198 1.763,0.396 2.671,0.601c11.894,2.823 23.391,7.375 32.36,15.919c0.548,0.519 1.096,1.039 1.66,1.574c10.428,11.015 13.829,25.627 13.691,40.299c-0.483,16.944 -6.314,30.213 -18.352,42.126c-0.592,0.625 -1.183,1.25 -1.793,1.895c-8.404,8.218 -20.124,12.823 -31.27,15.98c-1.005,0.286 -1.005,0.286 -2.031,0.579c-13.511,3.521 -27.225,3.953 -41.094,3.921c-1.288,-0 -1.288,-0 -2.602,-0.001c-12.796,-0.031 -24.883,-0.665 -37.21,-4.374c-0.985,-0.273 -0.985,-0.273 -1.99,-0.551c-21.24,-5.912 -43.89,-18.286 -57.01,-36.449c0,-2 0,-2 1.328,-3.34c0.634,-0.527 1.268,-1.054 1.922,-1.598c3.761,-3.196 7.429,-6.473 11.062,-9.812c0.515,-0.472 1.031,-0.943 1.562,-1.429c2.425,-2.227 4.825,-4.465 7.126,-6.821c2.958,1.343 5.123,2.858 7.5,5.062c23.807,21.132 49.353,28.221 80.945,27.09c12.803,-0.763 27.516,-4.121 36.969,-13.254c5.23,-6.261 6.97,-13.148 6.863,-21.168c-0.614,-6.043 -2.751,-10.97 -6.715,-15.543c-13.292,-9.428 -31.782,-10.488 -47.459,-12.264c-58.829,-6.741 -58.829,-6.741 -76.483,-25.876c-10.724,-13.54 -14.535,-30.045 -12.621,-47.047c3.058,-16.547 10.455,-29.409 24.18,-39.289c6.934,-4.44 14.088,-7.905 21.82,-10.711c0.807,-0.296 1.614,-0.593 2.445,-0.898c12.17,-4.057 25.159,-4.444 37.867,-4.352Z" style="fill:#eeedee;fill-rule:nonzero;"/><path d="M3034.875,442.75c0.729,-0.001 1.458,-0.001 2.209,-0.002c27.701,0.041 54.587,5.411 75.916,24.252c1.103,0.856 2.207,1.71 3.312,2.562c2.217,2.011 3.674,3.676 5.355,6.09c0.66,0.942 0.66,0.942 1.333,1.902c0.33,0.477 0.66,0.954 0.999,1.446c-0.453,0.448 -0.907,0.896 -1.374,1.358c-2.087,2.066 -4.169,4.135 -6.251,6.205c-0.713,0.704 -1.426,1.409 -2.16,2.135c-4.294,4.274 -8.336,8.647 -12.215,13.303c-3.426,-1.617 -5.66,-3.466 -8.375,-6.125c-16.5,-15.027 -39.519,-21.421 -61.575,-20.921c-14.067,0.683 -30.229,2.736 -40.362,13.234c-4.885,5.854 -7.328,11.969 -6.973,19.703c0.952,7.039 2.548,12.573 8.285,17.109c0.825,0.681 1.65,1.361 2.5,2.062c8.363,5.301 19.311,6.652 28.938,7.938c1.144,0.162 2.288,0.325 3.466,0.492c6.312,0.887 12.632,1.708 18.956,2.508c54.66,6.947 54.66,6.947 70.141,26c9.568,13.142 12.238,28.067 10.375,44.062c-2.818,16.426 -9.817,29.949 -23.375,39.938c-29.933,20.198 -69.542,21.618 -104,15c-22.828,-5.031 -49.91,-17.248 -63.34,-37.332c-0.548,-0.88 -1.096,-1.761 -1.66,-2.668c4.638,-4.696 9.304,-9.361 14,-14c0.837,-0.833 1.673,-1.665 2.535,-2.523c0.669,-0.632 1.338,-1.263 2.027,-1.914c0.558,-0.535 1.116,-1.07 1.691,-1.621c1.746,-0.941 1.746,-0.941 4.227,-0.793c2.751,0.93 4.163,1.938 6.27,3.914c0.691,0.63 1.382,1.261 2.094,1.91c1.421,1.336 2.838,2.677 4.25,4.023c19.781,18.384 45.04,21.879 71.008,21.277c13.995,-0.54 29.842,-3.175 40.164,-13.551c5.207,-7.393 6.932,-15.805 5.734,-24.723c-2.323,-6.855 -5.384,-11.635 -11.906,-14.977c-15.104,-6.776 -32.472,-8.056 -48.71,-10.185c-28.872,-3.799 -28.872,-3.799 -39.758,-7.651c-0.748,-0.259 -1.495,-0.519 -2.266,-0.786c-15.022,-5.375 -27.03,-13.88 -34.359,-28.402c-6.543,-16.298 -7.357,-33.607 -0.781,-50.047c8.268,-18.097 23.561,-27.938 41.391,-34.984c13.647,-4.839 27.937,-5.207 42.266,-5.219Z" style="fill:#edeced;fill-rule:nonzero;"/><path d="M2423,447l100,0c0.33,14.85 0.66,29.7 1,45c2.97,-5.28 5.94,-10.56 9,-16c2.616,-3.528 5.09,-6.766 8,-10c0.574,-0.643 1.147,-1.286 1.738,-1.949c10.923,-11.576 25.001,-16.427 40.691,-17.225c3.609,-0.058 7.212,-0.05 10.821,-0.013c1.195,0.001 2.39,0.001 3.621,0.002c9.105,0.044 18.009,0.616 27.129,1.186l0,35c-3.557,0.026 -7.113,0.052 -10.777,0.078c-3.502,0.039 -7.004,0.084 -10.506,0.129c-2.406,0.028 -4.812,0.049 -7.218,0.063c-22.282,0.139 -42.277,1.205 -59.277,17.315c-9.857,10.705 -13.341,24.181 -13.428,38.345c-0.01,0.996 -0.02,1.991 -0.03,3.017c-0.032,3.284 -0.056,6.569 -0.081,9.853c-0.021,2.28 -0.042,4.559 -0.063,6.839c-0.055,5.996 -0.105,11.991 -0.153,17.987c-0.059,7.196 -0.125,14.392 -0.19,21.589c-0.098,10.928 -0.187,21.856 -0.277,32.785c26.73,-0.33 53.46,-0.66 81,-1l0,31c-20.368,0.023 -40.737,0.041 -61.105,0.052c-9.46,0.005 -18.919,0.012 -28.379,0.024c-8.255,0.01 -16.51,0.016 -24.764,0.019c-4.362,0.001 -8.724,0.004 -13.086,0.012c-17.588,0.029 -35.101,-0.048 -52.666,-1.106l0,-29c18.487,-9.244 41.331,-1 62,-1l0,-152l-63,0l0,-31Z" style="fill:#eeedee;fill-rule:nonzero;"/><path d="M3212,447l114,0l0,183l72,0l0,31c-23.53,0.023 -47.061,0.041 -70.591,0.052c-10.925,0.005 -21.85,0.012 -32.776,0.024c-9.521,0.01 -19.041,0.016 -28.562,0.019c-5.043,0.001 -10.085,0.004 -15.128,0.012c-4.744,0.007 -9.488,0.009 -14.232,0.007c-1.743,0 -3.486,0.002 -5.229,0.006c-2.376,0.005 -4.753,0.004 -7.129,0.001c-0.693,0.003 -1.385,0.006 -2.099,0.009c-3.341,-0.01 -5.973,-0.309 -9.254,-1.129l0,-29c4.413,-0.148 8.825,-0.292 13.239,-0.427c1.48,-0.046 2.959,-0.095 4.438,-0.146c19.112,-0.654 38.187,-0.427 57.323,-0.427l0,-152l-76,0l0,-31Z" style="fill:#edeced;fill-rule:nonzero;"/><path d="M3327.875,356.875c5.836,5.836 6.269,13.066 6.375,20.938c-0.071,7.441 -1.009,13.54 -5.562,19.562c-6.978,6.815 -15.395,6.813 -24.625,6.875c-0.76,0.021 -1.52,0.041 -2.303,0.062c-6.757,0.046 -12.563,-1.438 -18.072,-5.562c-4.991,-5.107 -6.259,-10.799 -6.688,-17.75c-0.064,-0.773 -0.129,-1.547 -0.195,-2.344c-0.355,-7.468 1.174,-14.409 5.562,-20.578c11.357,-11.413 33.17,-9.25 45.508,-1.203Z" style="fill:#edeced;fill-rule:nonzero;"/><path d="M914,461c0.66,0.33 1.32,0.66 2,1c-5.94,5.94 -11.88,11.88 -18,18c0,-4.199 1.802,-5.335 4.625,-8.375c0.454,-0.49 0.908,-0.98 1.376,-1.486c3.14,-3.346 6.355,-6.359 9.999,-9.139Z" style="fill:#c9c8ca;fill-rule:nonzero;"/><path d="M2230,453c0.66,0.33 1.32,0.66 2,1c-4.95,4.95 -9.9,9.9 -15,15c0,-5.204 4.505,-8.421 8,-12c1.623,-1.386 3.267,-2.754 5,-4Z" style="fill:#cac9ca;fill-rule:nonzero;"/></svg>