<?xml version="1.0" encoding="UTF-8" standalone="no"?><!DOCTYPE svg PUBLIC "-//W3C//DTD SVG 1.1//EN" "http://www.w3.org/Graphics/SVG/1.1/DTD/svg11.dtd"><svg width="100%" height="100%" viewBox="0 0 4267 4267" version="1.1" xmlns="http://www.w3.org/2000/svg" xmlns:xlink="http://www.w3.org/1999/xlink" xml:space="preserve" xmlns:serif="http://www.serif.com/" style="fill-rule:evenodd;clip-rule:evenodd;stroke-linejoin:round;stroke-miterlimit:2;"><rect x="1352" y="1600" width="621" height="1055" style="fill:#63b1a3;fill-rule:nonzero;"/><path d="M2585,1737l2.041,0.236c70.49,8.192 137.389,34.288 190.959,81.764l2.828,2.492c12.932,11.625 25.465,23.787 36.172,37.508c1.58,1.857 3.164,3.711 4.75,5.562c51.17,61.53 76.34,140.23 87.25,218.438l0.366,2.551c1.052,7.466 1.882,14.947 2.634,22.449l0.209,2.05c2.62,25.988 3.066,51.917 3.041,78.013l-0.001,2.355c-0.003,4.554 -0.013,9.108 -0.036,13.663c-0.007,1.392 -0.012,2.784 -0.016,4.177c-0.038,10.626 -0.606,21.111 -1.197,31.743l-621,0c1.372,41.159 4.206,80.487 16,120l0.847,2.839c8.098,26.598 19.8,52.593 36.153,75.161l1.229,1.701c7.449,10.198 15.835,19.379 24.771,28.299l1.641,1.781c21.424,22.881 52.312,37.845 81.359,48.219l2.143,0.776c54.368,19.229 122.724,17.171 176.857,-0.776l2.688,-0.886c43.202,-14.472 82.024,-40.15 110.312,-76.114c0.907,-1.107 1.816,-2.213 2.727,-3.316c13.106,-15.964 24.446,-33.117 35.273,-50.684c5.701,3.05 10.635,6.668 15.688,10.688l4.836,3.801l2.347,1.846c2.621,2.05 5.274,4.053 7.942,6.041c5.403,4.026 10.767,8.102 16.125,12.188l2.725,2.077c4.567,3.482 9.132,6.968 13.693,10.458c10.077,7.705 20.212,15.32 30.445,22.816c4.09,2.997 8.149,6.035 12.199,9.086c-8.722,16.56 -18.787,32.025 -30,47l-1.372,1.84c-8.27,11.056 -17.168,21.559 -26.457,31.77c-1.458,1.605 -2.906,3.22 -4.344,4.844c-8.071,9.101 -16.56,17.665 -25.828,25.547l-2.902,2.566c-20.236,17.813 -42.298,32.823 -66.098,45.434l-2.01,1.065c-16.217,8.516 -33.074,15.804 -50.588,21.19c-1.644,0.51 -3.285,1.031 -4.922,1.563c-41.47,13.478 -86.121,18.585 -129.552,18.442c-3.858,-0.011 -7.716,-0 -11.574,0.013c-15.88,0.009 -31.553,-0.701 -47.354,-2.273l-2.245,-0.215c-73.456,-7.079 -142.164,-34.753 -199.755,-80.785l-3.113,-2.461c-16.393,-13.143 -32.809,-28.162 -45.723,-44.766c-1.612,-2.066 -3.248,-4.06 -4.953,-6.047c-16.2,-19.046 -29.539,-40.67 -41.211,-62.727l-1.635,-3.087c-21.933,-41.801 -36.358,-86.214 -44.698,-132.571c-0.491,-2.46 -1.041,-4.844 -1.672,-7.268c-1.002,-3.932 -1.646,-7.882 -2.179,-11.902l-0.303,-2.226c-0.323,-2.398 -0.638,-4.797 -0.95,-7.196l-0.33,-2.51c-1.623,-12.432 -2.956,-24.87 -3.983,-37.365l-0.178,-2.149c-1.623,-19.858 -2.311,-39.678 -2.322,-59.601l-0.002,-3.468c0.044,-48.017 3.722,-96.952 13.94,-143.97l0.772,-3.555c16.378,-73.884 48.335,-142.655 99.505,-198.879c1.819,-2.015 3.587,-4.063 5.348,-6.129c7.259,-8.323 15.272,-15.986 23.688,-23.125l2.934,-2.598c54.926,-48.424 124.879,-74.996 197.066,-83.402l2.987,-0.359c34.499,-3.931 71.538,-3.678 106.013,0.359Zm-56.312,125.562c-15.842,0.047 -31.25,0.407 -46.792,3.792l-2.895,0.646c-40.039,8.4 -81.358,25.846 -110.148,55.984l-1.852,2.016c-38.552,41.474 -59.765,92.531 -68.55,148.133l-0.45,2.867c-2.545,15.743 -3.358,30.938 -4,47l459,0c0,-11.425 0.137,-22.036 -0.914,-33.259c-0.204,-1.977 -0.407,-3.953 -0.603,-5.931c-1.015,-10.259 -2.206,-20.469 -4.074,-30.611l-0.409,-2.2c-7.35,-40.967 -21.37,-81.179 -47.613,-114.055l-2.387,-2.945c-24.654,-32.072 -62.263,-53.513 -101.148,-63.324l-2.852,-0.676c-20.254,-5.033 -40.457,-7.541 -61.336,-7.456l-2.976,0.019Z" style="fill:#efecf2;"/></svg>