<?xml version="1.0" encoding="UTF-8" standalone="no"?><!DOCTYPE svg PUBLIC "-//W3C//DTD SVG 1.1//EN" "http://www.w3.org/Graphics/SVG/1.1/DTD/svg11.dtd"><svg width="100%" height="100%" viewBox="0 0 4267 1067" version="1.1" xmlns="http://www.w3.org/2000/svg" xmlns:xlink="http://www.w3.org/1999/xlink" xml:space="preserve" xmlns:serif="http://www.serif.com/" style="fill-rule:evenodd;clip-rule:evenodd;stroke-linejoin:round;stroke-miterlimit:2;"><path d="M1358.625,363.688l2.421,0.006c11.579,0.045 22.682,0.44 33.954,3.307l2.105,0.504c29.13,7.071 52.994,25.216 68.895,50.496l1.162,1.829c18.857,30.181 26.91,68.745 27.041,103.956l0.017,3.679c0.009,2.566 0.016,5.132 0.02,7.698c0.01,3.838 0.041,7.675 0.072,11.512c0.207,48.537 -9.291,100.412 -44.312,136.326l-1.949,2.172c-20.954,22.727 -54.581,31.88 -84.359,33.18c-32.847,0.782 -62.602,-7.902 -87.691,-29.352l-2.078,-1.766c-6.055,-5.603 -10.076,-12.45 -14.922,-19.234l-1,173l-59,0c-0.023,-58.992 -0.041,-117.983 -0.051,-176.975l-0.004,-20.883l-0,-2.099c-0.004,-22.456 -0.012,-44.912 -0.021,-67.368c-0.01,-23.729 -0.016,-47.457 -0.018,-71.186c-0.001,-14.217 -0.006,-28.434 -0.014,-42.651c-0.005,-9.742 -0.007,-19.485 -0.006,-29.227c0.001,-5.625 -0,-11.25 -0.006,-16.875c-0.005,-5.148 -0.005,-10.295 -0.002,-15.443c0,-1.864 -0.001,-3.728 -0.004,-5.593c-0.004,-2.531 -0.002,-5.062 0.002,-7.593l-0.008,-2.2c0.015,-4.472 0.489,-8.412 1.131,-12.908l58,0l1,47l10,-14c16.795,-19.248 34.733,-31.841 60,-37l2.557,-0.546c9.022,-1.736 17.917,-1.81 27.068,-1.766Zm14.375,52.312c-28.635,-7.474 -63.758,-4.518 -87.652,14.062c-16.521,14.255 -25.612,31.288 -27.313,53.011l-0.21,3.235c-0.957,13.895 -1.097,27.763 -1.033,41.687c0.011,2.051 0.021,4.102 0.028,6.153c0.026,9.016 0.072,18.032 0.147,27.049l0.033,3.803c0.052,6.293 0.111,12.585 0.216,18.877l0.097,5.373c0.263,20.276 4.236,37.793 17.129,53.969c17.212,18.71 42.274,24.28 66.715,26.004c23.664,0.701 48.809,-5.123 66.336,-21.633c24.19,-24.981 28.672,-59.43 29.454,-92.838l0.054,-2.752c0.634,-32.007 0.748,-66.369 -14.102,-95.582l-1.898,-3.418c-10.095,-18.323 -24.7,-30.176 -44.887,-36.191l-3.113,-0.809Z" style="fill:#ebebed;"/><path d="M2569,367l2.59,0.422c29.74,5.067 56.592,17.459 74.41,42.578c16.05,24.335 20.173,49.542 20.114,78.149l0,5.768c0,5.191 -0.006,10.383 -0.013,15.574c-0.006,5.436 -0.007,10.872 -0.008,16.308c-0.003,10.281 -0.011,20.562 -0.021,30.843c-0.011,11.71 -0.017,23.42 -0.022,35.129c-0.01,24.076 -0.029,48.152 -0.05,72.229l41,0l0,46c-7.738,0.092 -15.474,0.172 -23.212,0.22c-2.627,0.02 -5.255,0.047 -7.882,0.082c-3.796,0.049 -7.591,0.071 -11.387,0.089l-3.509,0.063c-10.349,0.003 -20.759,-1.852 -29.011,-8.453l-2.438,-1.625c-10.076,-9.339 -14.411,-22.358 -17.562,-35.375l-1.434,2.273c-4.652,7.2 -9.543,13.603 -15.566,19.727l-2.266,2.305c-28.317,27.098 -66.994,28.719 -103.901,27.953c-27.771,-0.783 -55.949,-9.365 -76.834,-28.258l-2.512,-2.23c-16.738,-15.713 -26.265,-38.506 -27.711,-61.273c-0.117,-3.731 -0.158,-7.452 -0.153,-11.184l0.001,-1.992c0.034,-10.676 0.969,-20.215 4.374,-30.321l1.133,-3.484c8.04,-22.681 25.015,-40.026 46.48,-50.57c30.769,-14.144 64.485,-16.307 97.848,-16.141l6.766,0.009c5.856,0.008 11.711,0.027 17.567,0.049c6.007,0.021 12.015,0.03 18.022,0.04c11.728,0.021 23.456,0.055 35.184,0.098c-0.045,-5.671 -0.115,-11.34 -0.208,-17.01c-0.028,-1.921 -0.049,-3.842 -0.063,-5.763c-0.171,-21.845 -3.111,-40.535 -18.463,-57.098c-17.495,-16.785 -44.46,-18.782 -67.449,-18.312c-23.595,0.775 -49.946,4.371 -67.586,21.656c-8.084,9.16 -13.737,19.704 -19.23,30.527c-7.764,-2.395 -15.044,-5.586 -22.438,-8.938c-7.795,-3.52 -15.585,-6.976 -23.562,-10.062c5.482,-25.214 23.327,-47.667 44.688,-61.625c38.705,-24.418 90.507,-25.551 134.312,-18.375Zm-31.973,187.707c-29.606,-0.239 -67.134,0.224 -87.953,24.531c-9.946,13.243 -12.836,29.216 -10.723,45.465c2.652,13.213 9.876,24.336 20.648,32.297c23.216,14.62 56.277,14.672 82.621,10.621l3.379,-0.621c18.267,-3.28 36.019,-9.986 48.938,-23.75c18.855,-21.355 18.855,-21.355 15.686,-77.404l-0.138,-2.383c-0.16,-2.821 -0.322,-5.642 -0.485,-8.463c-10.882,-0.064 -21.764,-0.115 -32.646,-0.146c-5.579,-0.015 -11.157,-0.028 -16.736,-0.06c-5.433,-0.034 -10.866,-0.063 -16.299,-0.074c-2.097,-0.003 -4.194,-0.007 -6.291,-0.013Z" style="fill:#ebebed;"/><path d="M632,395c32.64,29.619 47.078,68.855 51,112l0,48l-245,1c-0.005,22.272 -0.005,22.272 3,44l0.406,2.056c2.982,14.478 9.419,28.143 19.594,38.944l2.129,2.289c10.8,10.636 25.422,16.808 39.871,20.711l3.438,0.965c20.545,4.804 43.277,3.355 63.562,-1.965l2.24,-0.567c20.4,-5.296 37.106,-17.266 47.955,-35.433c4.429,-7.759 4.429,-7.759 7.806,-16c5.079,1.529 9.639,3.682 14.355,6.062l2.374,1.188c1.647,0.825 3.294,1.652 4.939,2.481c2.519,1.269 5.041,2.531 7.564,3.792l4.811,2.414l2.282,1.143l2.125,1.072l1.863,0.937c1.618,0.873 3.157,1.89 4.687,2.91c-0.556,5.06 -2.26,9.146 -4.562,13.625l-1.089,2.132c-15.662,30.099 -40.554,50.476 -72.786,60.712c-9.418,2.87 -18.818,5.102 -28.562,6.531l-2.05,0.312c-41.637,6.132 -90.563,0.635 -125.263,-24.75c-5.466,-4.27 -10.64,-8.807 -15.688,-13.562l-2.012,-1.816c-14.376,-13.501 -24.48,-31.783 -30.988,-50.184l-0.773,-2.175c-3.136,-8.976 -5.661,-17.989 -7.477,-27.325l-0.458,-2.329c-3.123,-17.235 -3.665,-34.425 -3.663,-51.902c-0.004,-3.736 -0.041,-7.471 -0.079,-11.207c-0.226,-48.67 12.533,-94.429 46.887,-130c49.717,-49.846 155.13,-52.741 207.562,-6.062Zm-103.062,17.688c-20.573,-0.103 -40.553,4.634 -57.61,16.474c-19.128,14.089 -28.745,34.32 -32.736,57.192l-0.403,2.46c-1.13,6.847 -1.188,13.132 -1.188,20.188l188,0c0,-26.724 -5.628,-53.139 -24.82,-73.008c-18.62,-18.3 -42.459,-22.955 -67.694,-23.29l-3.548,-0.015Z" style="fill:#ebebed;"/><path d="M1603,227l58,0c0.33,60.72 0.66,121.44 1,184l2,0c1.507,-1.913 1.507,-1.913 3.062,-4.375c14.877,-21.808 35.991,-36.063 61.816,-41.082c1.03,-0.179 2.06,-0.358 3.121,-0.543c0.898,-0.172 1.796,-0.344 2.722,-0.521c6.593,-0.963 13.312,-0.724 19.966,-0.729c1.183,-0.001 1.183,-0.001 2.389,-0.002c11.86,0.016 23.359,0.367 34.923,3.252c0.679,0.166 1.359,0.333 2.059,0.504c24.078,6.145 45.772,20.107 58.941,41.496c0.353,0.568 0.706,1.136 1.07,1.722c6.141,9.999 10.485,20.08 13.93,31.278c0.379,1.176 0.758,2.351 1.148,3.562c5.695,19.184 6.299,39.317 6.192,59.184c-0.001,2.26 -0,4.519 0.001,6.779c0.001,6.05 -0.017,12.1 -0.038,18.15c-0.019,6.354 -0.021,12.708 -0.024,19.062c-0.008,10.638 -0.027,21.275 -0.054,31.913c-0.028,10.943 -0.049,21.886 -0.062,32.829c-0.001,0.678 -0.002,1.355 -0.002,2.054c-0.004,3.401 -0.008,6.802 -0.011,10.203c-0.031,28.088 -0.086,56.176 -0.151,84.265l-58,0c-0.02,-6.474 -0.04,-12.948 -0.06,-19.618c-0.067,-21.426 -0.145,-42.851 -0.227,-64.277c-0.05,-12.986 -0.096,-25.973 -0.134,-38.959c-0.033,-11.326 -0.073,-22.652 -0.121,-33.978c-0.025,-5.99 -0.047,-11.981 -0.061,-17.971c-0.013,-5.653 -0.035,-11.305 -0.064,-16.958c-0.009,-2.061 -0.015,-4.122 -0.017,-6.183c-0.032,-27.208 -0.713,-58.302 -21.05,-78.95c-0.748,-0.695 -1.495,-1.39 -2.266,-2.105c-0.686,-0.643 -1.372,-1.286 -2.078,-1.949c-13.423,-11.459 -31.3,-14.64 -48.422,-14.551c-1.308,0.006 -2.616,0.013 -3.963,0.02c-19.542,0.364 -40.845,4.857 -55.154,19.23c-1.383,1.25 -1.383,1.25 -3.383,1.25c-0.272,0.587 -0.544,1.173 -0.824,1.777c-1.153,2.18 -2.43,3.882 -3.988,5.785c-10.427,13.827 -13.327,32.134 -13.346,49.055c-0.005,0.938 -0.01,1.876 -0.015,2.842c-0.015,3.126 -0.024,6.252 -0.032,9.378c-0.01,2.247 -0.02,4.495 -0.03,6.742c-0.027,6.09 -0.048,12.18 -0.068,18.271c-0.022,6.369 -0.049,12.738 -0.076,19.106c-0.044,10.686 -0.085,21.372 -0.123,32.058c-0.039,11.004 -0.081,22.008 -0.125,33.012c-0.003,0.679 -0.005,1.358 -0.008,2.057c-0.014,3.406 -0.027,6.812 -0.041,10.219c-0.114,28.232 -0.22,56.464 -0.323,84.697l-59,0c0.33,-159.39 0.66,-318.78 1,-483Z" style="fill:#ececee;fill-rule:nonzero;"/><path d="M816,227l58,0c0.33,99.99 0.66,199.98 1,303c9.148,-0.246 9.148,-0.246 18,-2c1.054,-1.865 1.054,-1.865 2,-4c0.921,-1.245 1.881,-2.462 2.871,-3.652c0.853,-1.031 0.853,-1.031 1.724,-2.083c0.912,-1.09 0.912,-1.09 1.843,-2.202c0.627,-0.755 1.253,-1.51 1.899,-2.288c4.247,-5.107 8.528,-10.184 12.831,-15.244c2.797,-3.292 5.547,-6.616 8.27,-9.969c4.415,-5.423 8.963,-10.724 13.523,-16.023c2.865,-3.331 5.706,-6.681 8.539,-10.039c3.85,-4.563 7.73,-9.1 11.625,-13.625c3.581,-4.162 7.107,-8.358 10.562,-12.625c3.555,-4.382 7.28,-8.567 11.078,-12.738c2.236,-2.513 4.368,-5.085 6.484,-7.699c3.623,-4.475 7.345,-8.846 11.125,-13.188c4.942,-5.677 9.841,-11.388 14.699,-17.137c0.446,-0.507 0.892,-1.014 1.352,-1.537c1.711,-2.054 1.711,-2.054 3.475,-4.876c5.933,-8.438 5.933,-8.438 11.699,-10.135c4.28,-0.328 8.407,-0.296 12.689,-0.113c1.555,0.022 3.11,0.039 4.665,0.051c4.063,0.045 8.121,0.163 12.182,0.296c4.156,0.124 8.312,0.178 12.469,0.238c8.134,0.128 16.264,0.332 24.395,0.586c-0.964,1.125 -1.928,2.25 -2.892,3.374c-0.537,0.626 -1.074,1.253 -1.627,1.898c-5.033,5.87 -10.192,11.611 -15.429,17.3c-3.159,3.437 -6.259,6.917 -9.318,10.443c-4.291,4.91 -8.692,9.723 -13.062,14.562c-3.415,3.787 -6.822,7.578 -10.172,11.422c-4.871,5.59 -9.859,11.075 -14.828,16.578c-5.526,6.128 -11.011,12.284 -16.352,18.574c-5.545,6.522 -11.184,12.913 -17.032,19.165c-3.817,4.107 -7.351,8.39 -10.839,12.78c-1.917,2.272 -3.859,4.397 -5.93,6.523c-0.602,0.623 -1.204,1.245 -1.824,1.887c-1.193,1.224 -2.399,2.436 -3.619,3.634c-1.87,1.858 -1.87,1.858 -4.076,4.858c0.278,3.773 1.529,6.191 3.703,9.23c0.561,0.793 1.123,1.587 1.701,2.405c0.609,0.842 1.218,1.685 1.845,2.552c0.629,0.884 1.258,1.768 1.906,2.679c4.632,6.497 9.321,12.954 14.015,19.407c3.901,5.382 7.665,10.848 11.392,16.351c4.492,6.627 9.147,13.088 13.991,19.462c4.085,5.388 7.997,10.884 11.879,16.42c5.235,7.463 10.578,14.846 15.927,22.227c2.718,3.753 5.429,7.51 8.141,11.266c1.083,1.5 2.167,3 3.25,4.5c6.5,9 6.5,9 8.125,11.25c1.084,1.501 2.168,3.002 3.252,4.502c2.699,3.736 5.395,7.473 8.088,11.213c5.675,7.879 11.389,15.726 17.16,23.535c13.625,18.447 13.625,18.447 13.625,20c-9.066,0.372 -18.13,0.656 -27.202,0.829c-4.214,0.083 -8.423,0.196 -12.634,0.378c-27.133,1.144 -27.133,1.144 -33.707,-2.69c-3.808,-3.587 -5.889,-7.736 -7.7,-12.591c-1,-2.543 -2.446,-4.557 -4.105,-6.715c-0.454,-0.643 -0.908,-1.286 -1.376,-1.948c-0.442,-0.623 -0.883,-1.246 -1.338,-1.887c-0.748,-1.057 -0.748,-1.057 -1.51,-2.135c-3.484,-4.922 -6.991,-9.828 -10.504,-14.729c-3.618,-5.059 -7.177,-10.159 -10.735,-15.26c-5.077,-7.274 -10.224,-14.491 -15.433,-21.671c-3.624,-4.999 -7.203,-10.028 -10.755,-15.079c-4.66,-6.627 -9.386,-13.203 -14.14,-19.763c-3.701,-5.114 -7.356,-10.259 -10.985,-15.425c-5.517,-7.851 -11.17,-15.597 -16.875,-23.312c-3.754,1.503 -5.531,3.636 -8,6.789c-0.808,0.941 -1.616,1.882 -2.449,2.852c-1.666,1.949 -3.276,3.946 -4.82,5.992c-2.543,2.844 -2.543,2.844 -9.73,7.367l-28,0l0,129l-58,0l0,-483Z" style="fill:#ececee;fill-rule:nonzero;"/><path d="M3858.121,396.746c10.622,9.981 19.296,22.263 25.879,35.254l0,2c-0.521,0.265 -1.042,0.53 -1.579,0.803c-11.712,5.986 -23.162,12.229 -34.311,19.219c-1.31,0.801 -1.31,0.801 -2.646,1.618c-0.767,0.48 -1.534,0.96 -2.324,1.454c-2.14,0.905 -2.14,0.905 -4.282,0.726c-3.151,-1.392 -4.6,-4.398 -6.42,-7.196c-14.027,-20.483 -32.393,-29.676 -56.172,-34.421c-30.335,-5.644 -67.461,-4.853 -94.266,11.796c-9.38,6.734 -15.857,15.431 -18.523,26.754c-1.69,11.514 -1.943,23.124 4.523,33.246c10.651,13.712 27.477,17.564 43.875,20.312c1.18,0.202 2.36,0.405 3.575,0.613c8.901,1.482 17.839,2.651 26.792,3.773c1.184,0.149 2.368,0.297 3.587,0.45c5.96,0.743 11.921,1.471 17.885,2.176c21.098,2.54 42.084,5.917 62.286,12.675c0.668,0.217 1.336,0.435 2.024,0.659c16.075,5.299 29.093,13.296 40.976,25.341c1.015,1.017 1.015,1.017 2.051,2.055c14.761,15.776 19.739,38.559 19.199,59.641c-1.224,26.489 -10.291,50.381 -29.641,68.969c-36.872,33.008 -92.572,35.375 -139.455,32.818c-21.044,-1.315 -41.312,-4.187 -61.154,-11.482c-0.722,-0.262 -1.445,-0.523 -2.189,-0.792c-15.875,-5.843 -30.133,-13.98 -42.811,-25.208c-0.726,-0.606 -1.451,-1.212 -2.199,-1.836c-6.958,-5.858 -12.499,-12.691 -18.051,-19.852c-0.425,-0.547 -0.849,-1.093 -1.287,-1.657c-4.738,-6.188 -4.738,-6.188 -6.463,-9.656c1.365,-4.095 3.269,-4.602 6.984,-6.73c0.611,-0.354 1.223,-0.708 1.853,-1.073c1.966,-1.137 3.939,-2.261 5.913,-3.384c1.922,-1.104 3.842,-2.21 5.762,-3.317c1.272,-0.733 2.545,-1.465 3.819,-2.195c5.476,-3.151 10.831,-6.477 16.166,-9.86c2.503,-1.44 2.503,-1.44 4.503,-1.44c1.293,1.617 2.51,3.297 3.688,5c15.612,21.818 39.048,36.598 65.59,41.445c1.843,0.275 1.843,0.275 3.723,0.555c0.99,0.152 0.99,0.152 2,0.308c13.057,1.899 26.209,1.901 39.375,1.942c0.857,0.005 1.713,0.011 2.596,0.016c24.225,0.115 52.567,-2.481 71.029,-20.266c9.224,-9.776 12.41,-22.195 12.273,-35.297c-0.713,-9.65 -4.318,-17.944 -11.273,-24.703c-5.778,-4.767 -12.212,-7.702 -19.188,-10.25c-0.633,-0.234 -1.267,-0.468 -1.919,-0.71c-11.867,-4.043 -24.763,-5.414 -37.155,-7.057c-2.256,-0.3 -4.511,-0.605 -6.766,-0.912c-6.4,-0.87 -12.801,-1.732 -19.203,-2.587c-81.253,-10.861 -81.253,-10.861 -106.769,-34.485c-0.678,-0.576 -1.356,-1.152 -2.055,-1.746c-13.776,-12.463 -20.966,-32.221 -22.151,-50.407c-0.098,-3.348 -0.124,-6.685 -0.107,-10.035c0.006,-1.189 0.011,-2.378 0.017,-3.603c0.372,-27.057 10.085,-49.305 28.667,-68.682c51.407,-49.153 171.111,-48.145 223.75,-0.781Z" style="fill:#ebebed;fill-rule:nonzero;"/><path d="M3055,396c11.37,10.294 20.492,21.989 27,36l0,2c-0.764,0.407 -1.529,0.815 -2.316,1.234c-20.958,11.171 -20.958,11.171 -41.684,22.766c-3.674,-3.517 -6.788,-7.221 -9.812,-11.312c-16.005,-21.089 -37.651,-28.703 -63.274,-32.264c-6.654,-0.72 -13.292,-0.77 -19.976,-0.736c-0.717,0.001 -1.434,0.003 -2.173,0.005c-12.102,0.045 -23.902,0.791 -35.764,3.308c-0.665,0.139 -1.329,0.278 -2.014,0.422c-13.2,2.913 -26.174,9.082 -34.986,19.578c-7.877,12.636 -11.073,25.304 -7.875,40.062c2.626,9.344 6.713,16.2 15.035,21.418c21.984,11.763 50.166,12.408 74.445,15.475c16.915,2.141 33.744,4.299 50.394,8.045c0.858,0.193 1.716,0.385 2.6,0.584c23.278,5.378 44.379,13.172 61.4,30.416c1.127,1.129 1.127,1.129 2.277,2.281c14.684,15.558 20.137,35.059 20.035,55.969c-0.005,1.191 -0.01,2.382 -0.015,3.608c-0.116,8.756 -0.847,16.698 -3.298,25.142c-0.329,1.21 -0.657,2.421 -0.996,3.668c-4.645,15.511 -12.475,28.067 -24.004,39.332c-0.779,0.799 -1.557,1.598 -2.359,2.422c-25.601,24.914 -67.488,31.657 -101.715,31.781c-1.861,0.009 -1.861,0.009 -3.76,0.017c-2.621,0.009 -5.243,0.016 -7.864,0.02c-3.932,0.01 -7.864,0.041 -11.796,0.072c-33.976,0.142 -66.424,-4.929 -96.506,-21.312c-1.082,-0.577 -2.163,-1.155 -3.277,-1.75c-19.589,-10.891 -37.829,-28.99 -47.723,-49.25c0.8,-0.468 1.6,-0.936 2.424,-1.418c20.852,-12.183 20.852,-12.183 41.576,-24.582c2.653,2.561 4.944,5.156 7.125,8.125c16.335,21.111 42.661,35.772 69.178,39.532c11.565,1.472 23.107,1.562 34.749,1.583c3.111,0.01 6.222,0.041 9.333,0.072c24.296,0.128 51.227,-3.232 69.494,-20.93c9.205,-10.341 11.924,-21.675 11.469,-35.184c-0.645,-10.226 -4.567,-18.895 -12.102,-25.809c-19.146,-14.538 -50.627,-16.145 -73.496,-18.953c-4.464,-0.559 -8.928,-1.123 -13.391,-1.691c-1.643,-0.209 -1.643,-0.209 -3.318,-0.422c-8.038,-1.035 -16.057,-2.177 -24.069,-3.399c-1.05,-0.159 -2.1,-0.317 -3.183,-0.481c-29.321,-4.552 -62.483,-14.198 -81.228,-38.883c-14.499,-21.519 -18.919,-47.609 -14.535,-73.058c5.269,-25.839 19.445,-48.155 41.41,-62.942c55.203,-35.473 158.579,-34.915 208.562,9.438Z" style="fill:#ebebed;fill-rule:nonzero;"/><path d="M2291,370c0.781,3.449 1.122,6.624 1.114,10.157c-0,1.001 -0,2.001 -0,3.032c-0.005,1.068 -0.01,2.136 -0.016,3.236c-0.002,1.654 -0.002,1.654 -0.004,3.342c-0.006,3.515 -0.018,7.03 -0.031,10.545c-0.005,2.386 -0.01,4.772 -0.014,7.158c-0.011,5.843 -0.028,11.686 -0.049,17.529c-1.184,0.012 -1.184,0.012 -2.391,0.025c-7.515,0.079 -15.029,0.166 -22.544,0.263c-3.861,0.049 -7.723,0.096 -11.584,0.134c-23.327,0.064 -23.327,0.064 -46.481,2.578c-0.865,0.146 -1.73,0.291 -2.622,0.441c-21.132,3.966 -40.788,12.973 -53.718,30.782c-10.917,16.073 -18.708,34.944 -18.818,54.579c-0.005,0.647 -0.01,1.294 -0.015,1.961c-0.015,2.148 -0.024,4.296 -0.032,6.444c-0.01,1.548 -0.02,3.096 -0.03,4.643c-0.027,4.187 -0.048,8.375 -0.068,12.562c-0.022,4.382 -0.049,8.763 -0.076,13.145c-0.05,8.291 -0.095,16.581 -0.138,24.872c-0.059,11.208 -0.125,22.415 -0.191,33.623c-0.103,17.649 -0.197,35.298 -0.292,52.948l139,0l0,46l-289,0l0,-46c30.36,-0.33 60.72,-0.66 92,-1l0,-243c-30.03,-0.33 -60.06,-0.66 -91,-1l0,-49l145,0l0,80l2,0c0.261,-0.866 0.522,-1.731 0.791,-2.623c1.223,-3.417 2.719,-6.284 4.553,-9.412c0.664,-1.133 1.328,-2.266 2.012,-3.433c0.714,-1.199 1.428,-2.397 2.144,-3.594c0.362,-0.608 0.725,-1.216 1.098,-1.842c15.689,-26.246 34.914,-46.861 64.707,-56.122c3.222,-0.807 6.418,-1.43 9.695,-1.973c1.189,-0.204 2.377,-0.407 3.602,-0.617c23.39,-3.563 47.833,-1.319 71.398,-0.383Z" style="fill:#ececee;fill-rule:nonzero;"/><path d="M3212,370l181,0l0,294l115,0l0,46l-298,0c-0.33,-15.18 -0.66,-30.36 -1,-46l126,0l0,-245l-123,0l0,-49Z" style="fill:#ececee;fill-rule:nonzero;"/><path d="M3399,234c9.055,9.732 9.197,20.023 9.25,32.75c0.021,1.225 0.041,2.449 0.062,3.711c0.048,11.321 -1.561,20.038 -9.312,28.539c-9.507,9.019 -22.054,8.195 -34.312,8.25c-1.147,0.021 -2.293,0.041 -3.475,0.062c-10.811,0.049 -22.696,-1.074 -30.861,-8.891c-7.877,-9.145 -7.858,-22.07 -7.789,-33.547c-0.02,-1.185 -0.04,-2.369 -0.061,-3.59c0.006,-10.608 2.015,-19.857 9.615,-27.633c14.729,-12.926 51.843,-11.168 66.883,0.348Z" style="fill:#ebebed;fill-rule:nonzero;"/></svg>